<svg xmlns="http://www.w3.org/2000/svg" viewBox="0 0 224.8 189.68"><defs><style>.cls-1{fill:none;stroke:#000;stroke-linecap:round;stroke-linejoin:round;stroke-width:4.8px;}</style></defs><title>Faucet</title><g id="Layer_2" data-name="Layer 2"><g id="Elements"><g id="New_Symbol_15" data-name="New Symbol 15"><path class="cls-1" d="M45.57,55.11A14.53,14.53,0,0,0,59.2,45.63l.15-.39A31.61,31.61,0,0,1,89,24.6h64.78A17.36,17.36,0,0,0,171.14,7.24a4.85,4.85,0,0,0-4.85-4.84H7.25A4.85,4.85,0,0,0,2.4,7.24v43a4.84,4.84,0,0,0,4.85,4.84Z"/><path class="cls-1" d="M49.76,54.49a19.26,19.26,0,0,1,5.92,13.94V187.28H2.4V68.43A19.28,19.28,0,0,1,7.72,55.11"/><path class="cls-1" d="M55.68,153.89,180,82.44H222.4V65a7.27,7.27,0,0,0-7.27-7.27H186.48a24.21,24.21,0,0,0-12.07,3.22L55.68,129.15"/><path class="cls-1" d="M222.4,82.44v9.78a7.26,7.26,0,0,1-7.27,7.26H191.52a7.27,7.27,0,0,1-7.27-7.26V82.44"/><line class="cls-1" x1="14.23" y1="74.67" x2="14.23" y2="85.46"/><line class="cls-1" x1="14.49" y1="98.67" x2="14.49" y2="167.17"/><line class="cls-1" x1="14.49" y1="15.17" x2="14.49" y2="20.17"/><line class="cls-1" x1="14.49" y1="31.51" x2="14.49" y2="44.67"/></g></g></g></svg>