<svg xmlns="http://www.w3.org/2000/svg" viewBox="0 0 224.8 198.77"><defs><style>.cls-1{fill:none;stroke:#000;stroke-linecap:round;stroke-linejoin:round;stroke-width:4.8px;}</style></defs><title>Pipe Leak</title><g id="Layer_2" data-name="Layer 2"><g id="Elements"><g id="New_Symbol_1" data-name="New Symbol 1"><rect class="cls-1" x="87.51" y="38.78" width="49.78" height="14.04" rx="3.83"/><path class="cls-1" d="M129.63,52.82V86a28.3,28.3,0,0,1-34.46,0V52.82"/><rect class="cls-1" x="153.24" y="74.33" width="14.04" height="49.78" rx="3.83"/><rect class="cls-1" x="57.51" y="74.33" width="14.04" height="49.78" rx="3.83"/><polyline class="cls-1" points="71.56 116.45 104.74 116.45 120.06 116.45 153.25 116.45"/><line class="cls-1" x1="153.25" y1="81.99" x2="129.63" y2="81.99"/><line class="cls-1" x1="95.17" y1="81.99" x2="71.55" y2="81.99"/><line class="cls-1" x1="125.16" y1="38.78" x2="125.16" y2="23.46"/><line class="cls-1" x1="99.64" y1="38.78" x2="99.64" y2="23.46"/><path class="cls-1" d="M150.05,23.46a7,7,0,0,0,7-7v-7a7,7,0,0,0-7-7h-8.31a31.24,31.24,0,0,0-13.34,3,37.57,37.57,0,0,1-32,0,31.24,31.24,0,0,0-13.34-3H74.75a7,7,0,0,0-7,7v7a7,7,0,0,0,7,7Z"/><line class="cls-1" x1="167.29" y1="81.99" x2="222.4" y2="81.99"/><line class="cls-1" x1="57.51" y1="81.99" x2="2.4" y2="81.99"/><line class="cls-1" x1="167.29" y1="116.45" x2="222.4" y2="116.45"/><line class="cls-1" x1="57.51" y1="116.45" x2="2.4" y2="116.45"/><path class="cls-1" d="M175.58,133.08s7,14.09,7,21.14-7,7.58-7,7.58-7-.54-7-7.58S175.58,133.08,175.58,133.08Z"/><path class="cls-1" d="M191.68,167.3s7,14.09,7,21.14-7,7.58-7,7.58-7-.54-7-7.58S191.68,167.3,191.68,167.3Z"/><path class="cls-1" d="M160.27,167.66s7,14.08,7,21.13-7,7.58-7,7.58-7.05-.54-7.05-7.58S160.27,167.66,160.27,167.66Z"/></g></g></g></svg>