<svg xmlns="http://www.w3.org/2000/svg" viewBox="0 0 204.81 224.8"><defs><style>.cls-1{fill:none;stroke:#000;stroke-linecap:round;stroke-linejoin:round;stroke-width:4.8px;}</style></defs><title>Pipe Obstruction</title><g id="Layer_2" data-name="Layer 2"><g id="Elements"><g id="New_Symbol_6" data-name="New Symbol 6"><path d="M121.41,186.57a5,5,0,1,0-5,5A5,5,0,0,0,121.41,186.57Z"/><path d="M28.27,172.54a5,5,0,1,0-5,5A5,5,0,0,0,28.27,172.54Z"/><path d="M43.27,174.69a5,5,0,1,0-5,5A5,5,0,0,0,43.27,174.69Z"/><path d="M38.27,191.57a5,5,0,1,0-5,5A5,5,0,0,0,38.27,191.57Z"/><path d="M66.56,201.57a5,5,0,1,0-5,5A5,5,0,0,0,66.56,201.57Z"/><path d="M54.15,191.57a5,5,0,1,0-5,5A5,5,0,0,0,54.15,191.57Z"/><path d="M81.56,196.57a5,5,0,1,0-5,5A5,5,0,0,0,81.56,196.57Z"/><path d="M54.15,206.57a5,5,0,1,0-5,5A5,5,0,0,0,54.15,206.57Z"/><path d="M76.56,211.57a5,5,0,1,0-5,5A5,5,0,0,0,76.56,211.57Z"/><path d="M107.89,183.54a5,5,0,1,0-5,5A5,5,0,0,0,107.89,183.54Z"/><path d="M94.48,206.57a5,5,0,1,0-5,5A5,5,0,0,0,94.48,206.57Z"/><path d="M96.89,192.53a5,5,0,1,0-5,5A5,5,0,0,0,96.89,192.53Z"/><path d="M110.89,198.57a5,5,0,1,0-5,5A5,5,0,0,0,110.89,198.57Z"/><path class="cls-1" d="M133.26,146.23V160.7a61.7,61.7,0,1,1-123.4,0V94.48"/><line class="cls-1" x1="9.86" y1="77.11" x2="9.86" y2="2.4"/><path class="cls-1" d="M133.5,128.86a25.91,25.91,0,0,1,25.64-22.4h43.27"/><path class="cls-1" d="M97.54,128.86a61.76,61.76,0,0,1,61.6-58.22h43.27"/><line class="cls-1" x1="45.69" y1="77.11" x2="45.69" y2="2.4"/><path class="cls-1" d="M97.44,146.23V160.7a25.88,25.88,0,0,1-51.75,0V94.48"/><rect class="cls-1" x="2.4" y="77.11" width="51.75" height="17.38" rx="5.97"/><rect class="cls-1" x="89.48" y="128.86" width="51.75" height="17.38" rx="5.97"/><path class="cls-1" d="M45.69,51.44c-17.91,0-17.91-6-35.83-6"/></g></g></g></svg>