<svg xmlns="http://www.w3.org/2000/svg" viewBox="0 0 195.12 224.8"><defs><style>.cls-1{fill:none;stroke:#000;stroke-linecap:round;stroke-linejoin:round;stroke-width:4.8px;}</style></defs><title>Plumber</title><g id="Layer_2" data-name="Layer 2"><g id="Elements"><g id="New_Symbol_14" data-name="New Symbol 14"><path class="cls-1" d="M124,129.71c2.89,1.53,25.84,13.83,28.8,15.43,4.4,2.36,8.74,4.74,12.51,6.84,2.2,1.21,4.18,2.35,5.9,3.34s3.16,1.86,4.23,2.54c2.94,1.88,7.63,4.09,9.78,5.65h0c4.77,3.41,7.49,8.58,7.49,27.1v16.84H168.27"/><path class="cls-1" d="M71.12,129.71c-2.89,1.53-25.83,13.83-28.8,15.43-4.4,2.36-8.74,4.74-12.51,6.84-2.19,1.21-4.18,2.35-5.89,3.34s-3.17,1.86-4.23,2.54c-3,1.88-7.63,4.09-9.79,5.65h0c-4.77,3.41-7.49,8.58-7.49,27.1v16.84H26.85"/><path class="cls-1" d="M182.17,161.84c-15.44,0-13.9,21.21-13.9,28.37V222.4"/><path class="cls-1" d="M13,161.84c15.44,0,13.9,21.21,13.9,28.37V222.4"/><line class="cls-1" x1="190.63" y1="221.84" x2="190.63" y2="207.45"/><line class="cls-1" x1="4.49" y1="221.84" x2="4.49" y2="207.45"/><path class="cls-1" d="M142.22,60.38c1,4.09,2.42,12.72,1.35,16.25"/><path class="cls-1" d="M52.9,60.38c-1,4.09-2.42,12.72-1.35,16.25"/><path class="cls-1" d="M52.75,96.55c2.83,13.66,9.37,25.36,18.14,33.16a41.75,41.75,0,0,0,6.76,5,37,37,0,0,0,19.12,5.43h1.35a37,37,0,0,0,19.12-5.43,41.75,41.75,0,0,0,6.76-5c8.77-7.8,15.31-19.5,18.14-33.16"/><path class="cls-1" d="M142.15,96.55a10.05,10.05,0,0,0,1.43-19.92h0L133.5,74.18,132,66.6"/><path class="cls-1" d="M53,96.55a10.05,10.05,0,0,1-1.43-19.92h0l10.06-2.45,1.47-7.59"/><path class="cls-1" d="M83.47,112.93a20.23,20.23,0,0,0,13.41,5.89H98a20.23,20.23,0,0,0,13.41-5.89"/><path class="cls-1" d="M124.06,83.71a10.81,10.81,0,0,0-15.29-.12"/><path class="cls-1" d="M70.83,83.71a10.81,10.81,0,0,1,15.29-.12"/><path class="cls-1" d="M142.27,58.42c0,1.24-.05,2-.05,2"/><path class="cls-1" d="M52.85,58.42c0,1.24,0,2,0,2"/><path class="cls-1" d="M52.9,60.38c0-40.81-3.37-58,44.66-58s44.66,17.17,44.66,58"/><path class="cls-1" d="M66.38,49.59C66.77,8.79,83.86,2.4,97.56,2.4s30.79,6.39,31.18,47.19"/><path class="cls-1" d="M71.12,129.71c-10.3,25.36,10.07,40.49,26.44,40.49s36.75-15.13,26.44-40.49"/><path class="cls-1" d="M137,136.67v38.55a4.75,4.75,0,0,1-4.75,4.75H62.88a4.75,4.75,0,0,1-4.75-4.75V136.67"/><line class="cls-1" x1="154.18" y1="222.4" x2="154.18" y2="145.88"/><line class="cls-1" x1="40.94" y1="222.4" x2="40.94" y2="145.88"/><line class="cls-1" x1="154.18" y1="161.84" x2="136.99" y2="161.84"/><line class="cls-1" x1="40.94" y1="161.84" x2="58.13" y2="161.84"/><line class="cls-1" x1="154.18" y1="175.79" x2="136.99" y2="175.79"/><line class="cls-1" x1="40.94" y1="175.79" x2="58.13" y2="175.79"/><path class="cls-1" d="M137,195.25a19,19,0,0,1-19,19.05H77.18a19.05,19.05,0,0,1-19.05-19.05Z"/><line class="cls-1" x1="136.93" y1="196.69" x2="136.93" y2="222.4"/><line class="cls-1" x1="58.19" y1="196.69" x2="58.19" y2="222.4"/><path class="cls-1" d="M97.56,45.17c37.27,0,44.71,13.25,44.71,13.25l-10.54,8.41A12.19,12.19,0,0,1,121,69.07a86.09,86.09,0,0,0-23.45-3.13,90.52,90.52,0,0,0-29.23,4.83L52.85,58.42S60.29,45.17,97.56,45.17Z"/></g></g></g></svg>