<svg xmlns="http://www.w3.org/2000/svg" viewBox="0 0 224.8 194.15"><defs><style>.cls-1{fill:none;stroke:#000;stroke-linecap:round;stroke-linejoin:round;stroke-width:4.8px;}</style></defs><title>Plumibng Tools</title><g id="Layer_2" data-name="Layer 2"><g id="Elements"><g id="New_Symbol_13" data-name="New Symbol 13"><path class="cls-1" d="M154.61,90,55.22,189.42a7.93,7.93,0,0,1-11.22,0l-4.2-4.2a7.93,7.93,0,0,1,0-11.22l96.67-96.67"/><path class="cls-1" d="M148.14,65.65,161.6,52.2a4,4,0,0,0,.48-5l-9.74-14.47,9.34-7.94,29.09,29.09L174.91,69.73,166.67,78"/><path class="cls-1" d="M175.66,104.76l-11.92,16.15a5.91,5.91,0,0,1-4.34,2.4,6,6,0,0,1-4.66-1.72L150,116.81a6,6,0,0,1-.55-7.79l11.13-14.84"/><path class="cls-1" d="M194.4,79.38l25.09-34a14.87,14.87,0,0,0-4.34-21.61L179.26,2.4l-8.09,8.09L201,40.28,190.77,53.87,179.45,69"/><path class="cls-1" d="M166.67,78a4.1,4.1,0,0,1-1.94-.71L148.14,65.65l-11.44-8a3.95,3.95,0,0,0-5.51,1l-4.78,6.83a4,4,0,0,0,1,5.52l9.1,6.36L154.61,90l5.93,4.15,15.12,10.58,5.33,3.73a4,4,0,0,0,5.52-1l13.54-19.34a4,4,0,0,0-1-5.52l-4.67-3.27L180,69.29a3.26,3.26,0,0,0-.54-.31,4,4,0,0,0-4.54.75"/><path class="cls-1" d="M126.1,118.55l56.12,56.12a7.64,7.64,0,0,1,0,10.8l-4.06,4a7.63,7.63,0,0,1-10.79,0l-56.12-56.12"/><path class="cls-1" d="M95.83,118,48.45,70.59,22.77,64.05A26.74,26.74,0,0,1,4,46.58a31.52,31.52,0,0,1,7.63-32.24l7-7V35.46H51V7.3l12.2,12.21a24.36,24.36,0,0,1,6.5,22.73L66.78,54.63a6.89,6.89,0,0,0,1.85,6.45l42.05,42.05"/><polyline class="cls-1" points="18.68 35.46 18.68 47.14 50.95 47.14 50.95 35.46"/><path d="M167.91,182.41a4.77,4.77,0,1,0,0-6.75A4.77,4.77,0,0,0,167.91,182.41Z"/></g></g></g></svg>