<svg xmlns="http://www.w3.org/2000/svg" viewBox="0 0 156.25 224.8"><defs><style>.cls-1,.cls-2,.cls-3,.cls-4{fill:none;stroke:#000;stroke-linecap:round;stroke-linejoin:round;stroke-width:4.8px;}.cls-2{stroke-dasharray:0 12.43;}.cls-3{stroke-dasharray:0 13.02;}.cls-4{stroke-dasharray:0 12.52;}</style></defs><title>Shower</title><g id="Layer_2" data-name="Layer 2"><g id="Elements"><g id="New_Symbol_9" data-name="New Symbol 9"><path class="cls-1" d="M2.4,201.64a8,8,0,0,0,5.67,7.66l17,5.19a181.76,181.76,0,0,0,106,0l17-5.19a8,8,0,0,0,5.66-7.66V23.15a8,8,0,0,0-5.67-7.65l-17-5.19a181.56,181.56,0,0,0-106,0l-17,5.19A8,8,0,0,0,2.4,23.15Z"/><path class="cls-1" d="M2.4,28,25.11,21a181.76,181.76,0,0,1,106,0L153.85,28"/><path class="cls-1" d="M153.85,181.7l-22.7,6.92a181.79,181.79,0,0,1-106,0L2.4,181.7"/><line class="cls-1" x1="120.63" y1="18.17" x2="120.63" y2="190.01"/><line class="cls-1" x1="35.62" y1="18.17" x2="35.62" y2="190.01"/><polyline class="cls-1" points="130.38 101.51 136.06 101.51 136.06 131.42 130.38 131.42"/><polyline class="cls-1" points="25.88 101.51 20.2 101.51 20.2 131.42 25.88 131.42"/><line class="cls-1" x1="120.63" y1="150.73" x2="35.62" y2="150.73"/><line class="cls-1" x1="120.63" y1="164.74" x2="35.62" y2="164.74"/><path class="cls-1" d="M35.62,36l18.44-8.79a41.76,41.76,0,0,1,18-4.08H83.43L35.62,50"/><path class="cls-1" d="M83.43,23.13l.24.22a8.06,8.06,0,0,1-.84,12.84l-11,7.19a7.84,7.84,0,0,1-10-1.18l-4.27-4.56"/><path class="cls-1" d="M35.62,62.51s22,36.35,22,57.55-22,18.55-22,6.81"/><line class="cls-1" x1="72.07" y1="53.04" x2="72.07" y2="53.04"/><line class="cls-2" x1="71.82" y1="65.47" x2="70.68" y2="121.42"/><line class="cls-1" x1="70.55" y1="127.63" x2="70.55" y2="127.63"/><line class="cls-1" x1="80.78" y1="50.01" x2="80.78" y2="50.01"/><line class="cls-3" x1="82.23" y1="62.95" x2="88.76" y2="121.16"/><line class="cls-1" x1="89.48" y1="127.63" x2="89.48" y2="127.63"/><line class="cls-1" x1="87.97" y1="42.44" x2="87.97" y2="42.44"/><line class="cls-4" x1="90.89" y1="54.61" x2="106.96" y2="121.55"/><line class="cls-1" x1="108.42" y1="127.63" x2="108.42" y2="127.63"/></g></g></g></svg>