<svg xmlns="http://www.w3.org/2000/svg" viewBox="0 0 224.8 199.1"><defs><style>.cls-1{fill:none;stroke:#000;stroke-linecap:round;stroke-linejoin:round;stroke-width:4.8px;}</style></defs><title>Sump Pump</title><g id="Layer_2" data-name="Layer 2"><g id="Elements"><g id="New_Symbol_22" data-name="New Symbol 22"><path class="cls-1" d="M193.05,66.2a16.33,16.33,0,0,1,16.33,16.32V187.63a9.07,9.07,0,0,1-9.07,9.07H149.87a9.07,9.07,0,0,1-5.41-1.79l-9.46-7a14.57,14.57,0,0,0-8.65-2.86H98.45a14.57,14.57,0,0,0-8.65,2.86l-9.46,7a9.1,9.1,0,0,1-5.41,1.79H24.49a9.07,9.07,0,0,1-9.07-9.07V82.52A16.33,16.33,0,0,1,31.75,66.2Z"/><path class="cls-1" d="M144.15,120.49a31.75,31.75,0,1,0-31.75,31.75A31.76,31.76,0,0,0,144.15,120.49Z"/><path class="cls-1" d="M112.4,137.72a17.24,17.24,0,1,1,17.23-17.23A17.25,17.25,0,0,1,112.4,137.72Z"/><polyline class="cls-1" points="139.05 103.25 166.83 103.25 166.83 113.36 185.57 113.36 185.57 103.25 209.38 103.25"/><polyline class="cls-1" points="85.75 103.25 57.97 103.25 57.97 113.36 39.23 113.36 39.23 103.25 15.42 103.25"/><polyline class="cls-1" points="209.38 156.3 222.4 156.3 222.4 180.49 209.38 180.49"/><polyline class="cls-1" points="15.42 156.3 2.4 156.3 2.4 180.49 15.42 180.49"/><path class="cls-1" d="M178.75,26h-50a4.55,4.55,0,0,0-4.54,4.54V66.2"/><path class="cls-1" d="M100.61,66.2V30.52A28.15,28.15,0,0,1,128.73,2.4h50"/><line class="cls-1" x1="124.19" y1="44.37" x2="100.61" y2="44.37"/><line class="cls-1" x1="125.68" y1="27.17" x2="109.6" y2="9.94"/><line class="cls-1" x1="142.33" y1="25.98" x2="142.33" y2="2.4"/><line class="cls-1" x1="165.62" y1="25.98" x2="165.62" y2="2.4"/></g></g></g></svg>