<svg xmlns="http://www.w3.org/2000/svg" viewBox="0 0 183.18 224.8"><defs><style>.cls-1,.cls-2{fill:none;stroke:#000;stroke-linecap:round;stroke-linejoin:round;stroke-width:4.8px;}.cls-2{stroke-dasharray:20 12;}</style></defs><title>Toilet</title><g id="Layer_2" data-name="Layer 2"><g id="Elements"><g id="New_Symbol_8" data-name="New Symbol 8"><path class="cls-1" d="M34.06,2.4A14.78,14.78,0,0,1,48.84,17.18H2.4A14.78,14.78,0,0,1,17.18,2.4Z"/><line class="cls-1" x1="48.84" y1="17.18" x2="48.84" y2="111.29"/><path class="cls-1" d="M180.78,111.29v16.89a42.22,42.22,0,0,1-42.22,42.22H117.89a42.22,42.22,0,0,1-42.22-42.22V111.29"/><path class="cls-2" d="M90.45,130.29a25.35,25.35,0,0,0,25.33,25.33"/><path class="cls-1" d="M166,95.11a14.74,14.74,0,0,1,14.74,14.74v1.44H75.67v-1.44A14.74,14.74,0,0,1,90.41,95.11Z"/><polyline class="cls-1" points="75.67 111.29 2.4 111.29 2.4 17.18"/><path class="cls-1" d="M145.05,169.9v52.5H33V172.54A41.33,41.33,0,0,0,2.4,132.62"/><path class="cls-1" d="M33,200.66H65.12A10.55,10.55,0,0,0,75.67,190.1V132.62H2.4V111.29"/><line class="cls-1" x1="16.12" y1="34.59" x2="35.12" y2="34.59"/></g></g></g></svg>