<svg xmlns="http://www.w3.org/2000/svg" viewBox="0 0 224.8 125.15"><defs><style>.cls-1{fill:none;stroke:#000;stroke-linecap:round;stroke-linejoin:round;stroke-width:4.8px;}</style></defs><title>Tub</title><g id="Layer_2" data-name="Layer 2"><g id="Elements"><g id="New_Symbol_2" data-name="New Symbol 2"><path class="cls-1" d="M160.7,46.79a82.52,82.52,0,0,1-38.88,9.76H9.49a7.1,7.1,0,0,1,0-14.19H121.82A68.47,68.47,0,0,0,154,34.29l58-31a7.09,7.09,0,1,1,6.69,12.51Z"/><line class="cls-1" x1="156.67" y1="105.61" x2="55.01" y2="105.61"/><path class="cls-1" d="M9.49,56.55,26.89,99a10.62,10.62,0,0,0,9.84,6.61h2.91"/><path class="cls-1" d="M172,105.61h.51a14.2,14.2,0,0,0,13.14-8.84l33-81"/><path class="cls-1" d="M172,97.92a7.68,7.68,0,1,0-15.36,0"/><path class="cls-1" d="M156.67,97.92v10.64a14.18,14.18,0,0,0,14.18,14.19h6.51a5.32,5.32,0,0,0,5.31-5.32A4.72,4.72,0,0,0,178,112.7a5.91,5.91,0,0,1-5.91-5.91V97.92"/><path class="cls-1" d="M39.64,97.92a7.69,7.69,0,0,1,15.37,0"/><path class="cls-1" d="M55,97.92v10.64a14.19,14.19,0,0,1-14.19,14.19h-6.5A5.32,5.32,0,0,1,29,117.43a4.73,4.73,0,0,1,4.73-4.73,5.92,5.92,0,0,0,5.91-5.91V97.92"/><path class="cls-1" d="M13.63,42.37V19.43A14.21,14.21,0,0,1,27.82,5.24h2.95A14.2,14.2,0,0,1,45,19.43v5.32a5.32,5.32,0,0,1-10.64,0V19.43a3.55,3.55,0,0,0-3.55-3.55H27.82a3.55,3.55,0,0,0-3.55,3.55V42.37"/></g></g></g></svg>