<svg xmlns="http://www.w3.org/2000/svg" viewBox="0 0 165.38 224.8"><defs><style>.cls-1{fill:none;stroke:#000;stroke-linecap:round;stroke-linejoin:round;stroke-width:4.8px;}</style></defs><title>Washing Machine</title><g id="Layer_2" data-name="Layer 2"><g id="Elements"><g id="New_Symbol" data-name="New Symbol"><rect class="cls-1" x="2.4" y="2.4" width="160.58" height="209.04"/><polyline class="cls-1" points="145.4 211.44 145.4 222.4 120.69 222.4 120.69 211.44"/><polyline class="cls-1" points="19.98 211.44 19.98 222.4 44.68 222.4 44.68 211.44"/><line class="cls-1" x1="2.4" y1="39.97" x2="162.98" y2="39.97"/><line class="cls-1" x1="54.18" y1="2.4" x2="54.18" y2="39.97"/><rect class="cls-1" x="114.22" y="15.03" width="36.7" height="13.3"/><path d="M103.9,21.19a5,5,0,1,0-5,5A5,5,0,0,0,103.9,21.19Z"/><path d="M88.65,21.19a5,5,0,1,0-5,5A5,5,0,0,0,88.65,21.19Z"/><path d="M73.4,21.19a5,5,0,1,0-5,5A5,5,0,0,0,73.4,21.19Z"/><circle class="cls-1" cx="82.69" cy="111.71" r="56.53" transform="translate(-16.83 14.69) rotate(-9.22)"/><path class="cls-1" d="M82.69,149.24a37.53,37.53,0,1,1,37.53-37.53A37.57,37.57,0,0,1,82.69,149.24Z"/><path class="cls-1" d="M111,136.37A37.48,37.48,0,0,1,111,87"/><line class="cls-1" x1="2.4" y1="185.34" x2="162.98" y2="185.34"/><line class="cls-1" x1="19.03" y1="21.19" x2="41.36" y2="21.19"/></g></g></g></svg>