<svg xmlns="http://www.w3.org/2000/svg" viewBox="0 0 224.8 160.32"><defs><style>.cls-1{fill:none;stroke:#000;stroke-linecap:round;stroke-linejoin:round;stroke-width:4.8px;}</style></defs><title>Water Filtration</title><g id="Layer_2" data-name="Layer 2"><g id="Elements"><g id="New_Symbol_19" data-name="New Symbol 19"><path class="cls-1" d="M154,59.06a6.25,6.25,0,0,0,6.26,6.25h48.06a6.25,6.25,0,0,0,6.25-6.25V45.38H154Z"/><path class="cls-1" d="M70.78,59.06a6.25,6.25,0,0,1-6.25,6.25H16.46a6.25,6.25,0,0,1-6.25-6.25V45.38H70.78Z"/><path class="cls-1" d="M208.33,65.31,202.27,155a3.12,3.12,0,0,1-3.12,2.91H169.44a3.13,3.13,0,0,1-3.12-2.91l-6-89.7"/><path class="cls-1" d="M16.46,65.31,22.52,155a3.12,3.12,0,0,0,3.12,2.91H55.35A3.12,3.12,0,0,0,58.47,155l6.06-89.7"/><path class="cls-1" d="M29.31,96.31q-.49-6.09-1.1-12.17"/><path class="cls-1" d="M32.48,148.9c-.63-12.78-1.27-25.55-2.12-38.31"/><path class="cls-1" d="M101.05,96.31q-.49-6.09-1.1-12.17"/><path class="cls-1" d="M104.23,148.9c-.64-12.78-1.28-25.55-2.13-38.31"/><path class="cls-1" d="M172.79,96.31q-.49-6.09-1.1-12.17"/><path class="cls-1" d="M176,148.9c-.64-12.78-1.28-25.55-2.13-38.31"/><path class="cls-1" d="M136.43,65.31a6.25,6.25,0,0,0,6.25-6.25V45.38H82.11V59.06a6.25,6.25,0,0,0,6.25,6.25Z"/><path class="cls-1" d="M136.43,65.31,130.37,155a3.12,3.12,0,0,1-3.12,2.91H97.54A3.13,3.13,0,0,1,94.42,155l-6.06-89.7"/><path class="cls-1" d="M214.58,45.38h4.69a3.13,3.13,0,0,0,3.13-3.12V21.16A3.13,3.13,0,0,0,219.27,18H5.53A3.13,3.13,0,0,0,2.4,21.16v21.1a3.13,3.13,0,0,0,3.13,3.12h4.69"/><line class="cls-1" x1="142.68" y1="45.38" x2="155.19" y2="45.38"/><line class="cls-1" x1="82.11" y1="45.38" x2="69.61" y2="45.38"/><path class="cls-1" d="M23.11,18V11.78A9.37,9.37,0,0,1,32.48,2.4H192.31a9.38,9.38,0,0,1,9.38,9.38V18"/></g></g></g></svg>