<svg xmlns="http://www.w3.org/2000/svg" viewBox="0 0 224.8 113.75"><defs><style>.cls-1{fill:none;stroke:#000;stroke-linecap:round;stroke-linejoin:round;stroke-width:4.8px;}</style></defs><title>Water Meter</title><g id="Layer_2" data-name="Layer 2"><g id="Elements"><g id="New_Symbol_18" data-name="New Symbol 18"><circle class="cls-1" cx="112.4" cy="56.87" r="54.47"/><ellipse class="cls-1" cx="112.4" cy="56.87" rx="41.9" ry="41.99"/><rect class="cls-1" x="85.69" y="36.65" width="53.42" height="17.17"/><line class="cls-1" x1="128.24" y1="36.65" x2="128.24" y2="53.82"/><line class="cls-1" x1="117.68" y1="36.65" x2="117.68" y2="53.82"/><line class="cls-1" x1="107.12" y1="36.65" x2="107.12" y2="53.82"/><line class="cls-1" x1="96.56" y1="36.65" x2="96.56" y2="53.82"/><line class="cls-1" x1="199.76" y1="44.28" x2="160.77" y2="31.79"/><line class="cls-1" x1="25.04" y1="44.28" x2="64.03" y2="31.79"/><line class="cls-1" x1="199.76" y1="69.47" x2="160.77" y2="81.95"/><line class="cls-1" x1="25.04" y1="69.47" x2="64.03" y2="81.95"/><rect class="cls-1" x="199.77" y="40.09" width="22.63" height="32.05" rx="4.58"/><rect class="cls-1" x="2.4" y="40.09" width="22.63" height="32.05" rx="4.58"/><line class="cls-1" x1="211.42" y1="40.08" x2="211.42" y2="72.14"/><line class="cls-1" x1="13.38" y1="40.08" x2="13.38" y2="72.14"/><path class="cls-1" d="M139.11,73.35a6.87,6.87,0,1,0-6.87,6.87A6.87,6.87,0,0,0,139.11,73.35Z"/><line class="cls-1" x1="110.49" y1="70.3" x2="90.65" y2="70.3"/><line class="cls-1" x1="110.49" y1="79.39" x2="90.65" y2="79.39"/></g></g></g></svg>