<svg xmlns="http://www.w3.org/2000/svg" viewBox="0 0 113.12 224.8"><defs><style>.cls-1{fill:none;stroke:#000;stroke-linecap:round;stroke-linejoin:round;stroke-width:4.8px;}</style></defs><title>Water Heater</title><g id="Layer_2" data-name="Layer 2"><g id="Elements"><g id="New_Symbol_17" data-name="New Symbol 17"><rect class="cls-1" x="2.4" y="14.19" width="108.32" height="198.67" rx="8.42"/><polyline class="cls-1" points="97.25 212.86 97.25 222.4 77.04 222.4 77.04 212.86"/><polyline class="cls-1" points="15.87 212.86 15.87 222.4 36.07 222.4 36.07 212.86"/><path class="cls-1" d="M87.15,212.86v-69A10.11,10.11,0,0,0,77,133.73h-41A10.1,10.1,0,0,0,26,143.83v69"/><path class="cls-1" d="M73,176.38a15.71,15.71,0,1,0-15.71,15.71A15.71,15.71,0,0,0,73,176.38Z"/><line class="cls-1" x1="61.33" y1="173.29" x2="68.9" y2="165.72"/><path d="M61.54,150.28a4.21,4.21,0,1,1-4.21-4.21A4.21,4.21,0,0,1,61.54,150.28Z"/><path d="M78.76,160.9a4.21,4.21,0,1,1,0-6A4.19,4.19,0,0,1,78.76,160.9Z"/><path d="M34.36,160.9a4.21,4.21,0,1,0,0-6A4.19,4.19,0,0,0,34.36,160.9Z"/><path class="cls-1" d="M57.33,2.4H85.46A11.79,11.79,0,0,1,97.25,14.19"/><path class="cls-1" d="M55.79,2.4H27.66A11.79,11.79,0,0,0,15.87,14.19"/><line class="cls-1" x1="37.33" y1="95.99" x2="75.78" y2="95.99"/><path class="cls-1" d="M49.54,81.48c-7.52,0-16.42-4.75-12.21-21.78,0,0,3.46,7,10.47,9.58a11.42,11.42,0,0,1-1.25-8.94c1.5-4.76,10.31-15.52,6-22.42,0,0,10.4,1.48,7.4,21.78,0,0,6,0,10.5-7.3,0,0,5.3,8.25-3.12,15.71,0,0,10.88-.45,12.63-3.71,0,0,2.57,17.08-13.43,17.08"/></g></g></g></svg>