<svg xmlns="http://www.w3.org/2000/svg" viewBox="0 0 158.8 224.8"><defs><style>.cls-1{fill:none;stroke:#000;stroke-linecap:round;stroke-linejoin:round;stroke-width:4.8px;}</style></defs><title>Dish Washer</title><g id="Layer_2" data-name="Layer 2"><g id="Elements"><g id="New_Symbol_4" data-name="New Symbol 4"><rect class="cls-1" x="2.4" y="2.4" width="154" height="220"/><line class="cls-1" x1="2.4" y1="29.77" x2="156.4" y2="29.77"/><line class="cls-1" x1="2.4" y1="199.13" x2="156.4" y2="199.13"/><line class="cls-1" x1="17.26" y1="16.4" x2="61.33" y2="16.4"/><rect class="cls-1" x="17.26" y="44.56" width="124.29" height="135.68" rx="15.85"/><path d="M105.94,16.4a5,5,0,1,1-5-5A5,5,0,0,1,105.94,16.4Z"/><circle cx="119.78" cy="16.4" r="5"/><path d="M143.61,16.4a5,5,0,1,1-5-5A5,5,0,0,1,143.61,16.4Z"/><path class="cls-1" d="M127.43,83.5a20.8,20.8,0,1,0-20.79,20.8A20.79,20.79,0,0,0,127.43,83.5Z"/><path class="cls-1" d="M31.37,83.5a20.8,20.8,0,1,1,20.8,20.8A20.8,20.8,0,0,1,31.37,83.5Z"/><path class="cls-1" d="M65.78,99.22a20.8,20.8,0,0,0,27.24,0"/><path class="cls-1" d="M65.78,67.78a20.8,20.8,0,0,1,27.24,0"/><path class="cls-1" d="M92.52,177.36a22.63,22.63,0,1,0-10.89-25.28"/><line class="cls-1" x1="134.61" y1="94.64" x2="24.19" y2="94.64"/><polyline class="cls-1" points="33.1 180.24 33.1 152.09 92.52 152.09 92.52 180.24"/><line class="cls-1" x1="33.1" y1="166.16" x2="92.52" y2="166.16"/><line class="cls-1" x1="48.95" y1="152.08" x2="48.95" y2="180.24"/><line class="cls-1" x1="62.81" y1="152.08" x2="62.81" y2="180.24"/><line class="cls-1" x1="76.68" y1="152.08" x2="76.68" y2="180.24"/><path class="cls-1" d="M107.24,135.29l12.17-23.07a5.92,5.92,0,0,1,5.26-3.17,5.85,5.85,0,0,1,2.76.69,6,6,0,0,1,2.49,8l-11.85,22.47"/><line class="cls-1" x1="40.53" y1="125.6" x2="40.53" y2="115.73"/><line class="cls-1" x1="40.53" y1="152.08" x2="40.53" y2="134.99"/><path class="cls-1" d="M49,116.22v12.86A5.92,5.92,0,0,1,43,135H38a5.92,5.92,0,0,1-5.91-5.91V116.22"/><line class="cls-1" x1="32.11" y1="125.61" x2="48.95" y2="125.61"/><path class="cls-1" d="M69.74,135s7.68-4.2,7.68-9.38S74.7,112.4,69.74,112.4s-7.67,8-7.67,13.21S69.74,135,69.74,135Z"/><line class="cls-1" x1="69.74" y1="134.99" x2="69.74" y2="152.08"/></g></g></g></svg>