<svg xmlns="http://www.w3.org/2000/svg" viewBox="0 0 224.8 224.8"><defs><style>.cls-1{fill:none;stroke:#000;stroke-linecap:round;stroke-linejoin:round;stroke-width:4.8px;}</style></defs><title>Garbage Disposal</title><g id="Layer_2" data-name="Layer 2"><g id="Elements"><g id="New_Symbol_23" data-name="New Symbol 23"><path class="cls-1" d="M107.48,60.56V18.7a16.32,16.32,0,0,1,16.3-16.3h3.7a16.32,16.32,0,0,1,16.3,16.3v2.53a4.12,4.12,0,0,1-4.11,4.12h-2.18a4.16,4.16,0,0,1-4.16-4.16V18.7a5.86,5.86,0,0,0-5.85-5.85h-3.7a5.86,5.86,0,0,0-5.85,5.85V60.56"/><line class="cls-1" x1="2.4" y1="60.56" x2="222.4" y2="60.56"/><path class="cls-1" d="M196.56,60.56l-7,40.11a4,4,0,0,1-3.94,3.32H39.16a4,4,0,0,1-3.94-3.32l-7-40.11"/><line class="cls-1" x1="131.44" y1="121.72" x2="131.44" y2="103.99"/><line class="cls-1" x1="93.36" y1="121.72" x2="93.36" y2="103.99"/><rect class="cls-1" x="71.97" y="121.72" width="80.85" height="57.9" rx="9.39"/><path class="cls-1" d="M143.44,179.63l-6.31,36.28a7.82,7.82,0,0,1-7.71,6.49h-34a7.82,7.82,0,0,1-7.71-6.49l-6.31-36.28"/><path class="cls-1" d="M215.87,180.8H193.65a3.13,3.13,0,0,1-3.13-3.13V161.24a15.67,15.67,0,0,0-15.65-15.65h-22"/><path class="cls-1" d="M152.83,158.11h22a3.13,3.13,0,0,1,3.13,3.13v16.43a15.67,15.67,0,0,0,15.65,15.65h22.22"/><path class="cls-1" d="M130,60.56V54.82a6.26,6.26,0,0,1,6.26-6.26h.36a6.27,6.27,0,0,1,6.26,6.26v5.74"/><path class="cls-1" d="M94.85,60.56V54.82a6.27,6.27,0,0,0-6.26-6.26h-.36A6.26,6.26,0,0,0,82,54.82v5.74"/><line class="cls-1" x1="83.41" y1="135.64" x2="83.41" y2="140.31"/><line class="cls-1" x1="83.41" y1="151.98" x2="83.41" y2="168.42"/><line class="cls-1" x1="110.66" y1="102.4" x2="114.14" y2="122.4"/></g></g></g></svg>