<svg xmlns="http://www.w3.org/2000/svg" viewBox="0 0 224.8 224.2"><defs><style>.cls-1{fill:none;stroke:#000;stroke-linecap:round;stroke-linejoin:round;stroke-width:4.8px;}</style></defs><title>Plumbing System</title><g id="Layer_2" data-name="Layer 2"><g id="Elements"><g id="New_Symbol_3" data-name="New Symbol 3"><line class="cls-1" x1="6.49" y1="221.8" x2="6.49" y2="189.44"/><line class="cls-1" x1="6.49" y1="140.52" x2="6.49" y2="2.4"/><line class="cls-1" x1="21.55" y1="221.8" x2="21.55" y2="189.28"/><line class="cls-1" x1="21.55" y1="140.54" x2="21.55" y2="2.4"/><line class="cls-1" x1="47.54" y1="221.8" x2="47.54" y2="173.26"/><line class="cls-1" x1="47.54" y1="83.31" x2="47.54" y2="2.4"/><line class="cls-1" x1="47.54" y1="158.2" x2="47.54" y2="132.24"/><line class="cls-1" x1="62.59" y1="221.8" x2="62.59" y2="173.26"/><line class="cls-1" x1="62.59" y1="83.31" x2="62.59" y2="2.4"/><line class="cls-1" x1="62.59" y1="158.2" x2="62.59" y2="132.16"/><line class="cls-1" x1="113.02" y1="88.63" x2="113.02" y2="24.87"/><line class="cls-1" x1="128.08" y1="88.72" x2="128.08" y2="24.51"/><polyline class="cls-1" points="174.93 82.56 174.93 100.25 174.93 115.3 174.93 146.88"/><line class="cls-1" x1="174.93" y1="44.93" x2="174.93" y2="25"/><polyline class="cls-1" points="189.99 82.48 189.99 100.25 189.99 115.3 189.99 147.05"/><line class="cls-1" x1="189.99" y1="45" x2="189.99" y2="24.36"/><line class="cls-1" x1="222.4" y1="100.25" x2="189.99" y2="100.25"/><line class="cls-1" x1="95.1" y1="100.25" x2="73.58" y2="100.25"/><line class="cls-1" x1="174.93" y1="100.25" x2="144" y2="100.25"/><line class="cls-1" x1="222.4" y1="115.3" x2="189.99" y2="115.3"/><line class="cls-1" x1="95.13" y1="115.3" x2="73.88" y2="115.3"/><line class="cls-1" x1="174.93" y1="115.3" x2="144" y2="115.3"/><line class="cls-1" x1="222.4" y1="158.2" x2="205.68" y2="158.2"/><polyline class="cls-1" points="123.5 158.2 128.08 158.2 156.82 158.2"/><polyline class="cls-1" points="32.51 158.2 61.09 158.2 86 158.2"/><line class="cls-1" x1="222.4" y1="173.26" x2="205.75" y2="173.26"/><polyline class="cls-1" points="123.56 173.26 128.08 173.26 156.82 173.26"/><polyline class="cls-1" points="32.51 173.26 61.09 173.26 85.93 173.26"/><path class="cls-1" d="M2.4,144.28a3.76,3.76,0,0,1,3.76-3.77H21.22A3.76,3.76,0,0,1,25,144.28v10.91h3.76A3.77,3.77,0,0,1,32.51,159V172.5a3.77,3.77,0,0,1-3.77,3.77H24.23v9.4a3.77,3.77,0,0,1-3.77,3.77H6.16a3.76,3.76,0,0,1-3.76-3.77Z"/><path class="cls-1" d="M43.78,87.08a3.76,3.76,0,0,1,3.76-3.77H62.59a3.77,3.77,0,0,1,3.77,3.77V98h3.76a3.76,3.76,0,0,1,3.77,3.76V115.3a3.76,3.76,0,0,1-3.77,3.76H65.61v9.41a3.77,3.77,0,0,1-3.77,3.77H47.54a3.76,3.76,0,0,1-3.76-3.77Z"/><path class="cls-1" d="M98.87,118.69a3.77,3.77,0,0,1-3.77-3.77v-15a3.76,3.76,0,0,1,3.77-3.76h10.91V92.34a3.76,3.76,0,0,1,3.76-3.76h13.55a3.77,3.77,0,0,1,3.77,3.76v4.52h9.4a3.77,3.77,0,0,1,3.77,3.76v14.3a3.77,3.77,0,0,1-3.77,3.77Z"/><path class="cls-1" d="M160.59,177a3.77,3.77,0,0,1-3.77-3.77v-15a3.76,3.76,0,0,1,3.77-3.76H171.5v-3.77a3.76,3.76,0,0,1,3.76-3.76h13.55a3.76,3.76,0,0,1,3.77,3.76v4.52H202a3.76,3.76,0,0,1,3.77,3.76v14.3A3.77,3.77,0,0,1,202,177Z"/><path class="cls-1" d="M108.51,155.07l1.88.07h9.41a3.76,3.76,0,0,1,3.76,3.76v14.3A3.76,3.76,0,0,1,119.8,177H89.69a3.76,3.76,0,0,1-3.76-3.77V158.9a3.76,3.76,0,0,1,3.76-3.76h16.94Z"/><path class="cls-1" d="M171.09,60l.07-1.88V48.69a3.76,3.76,0,0,1,3.76-3.76h14.3A3.76,3.76,0,0,1,193,48.69V78.8a3.76,3.76,0,0,1-3.77,3.76h-14.3a3.76,3.76,0,0,1-3.76-3.76V61.86Z"/><line class="cls-1" x1="104.74" y1="155.14" x2="104.74" y2="143.15"/><line class="cls-1" x1="113.69" y1="143.15" x2="95.8" y2="143.15"/><circle class="cls-1" cx="182.04" cy="14.82" r="12.42"/><path class="cls-1" d="M132.74,14.82a12.42,12.42,0,1,0-12.42,12.42A12.42,12.42,0,0,0,132.74,14.82Z"/></g></g></g></svg>