<svg xmlns="http://www.w3.org/2000/svg" viewBox="0 0 119.9 224.8"><defs><style>.cls-1{fill:none;stroke:#000;stroke-linecap:round;stroke-linejoin:round;stroke-width:4.8px;}</style></defs><title>Plunger</title><g id="Layer_2" data-name="Layer 2"><g id="Elements"><g id="New_Symbol_16" data-name="New Symbol 16"><path class="cls-1" d="M53.22,159.35V9.13a6.74,6.74,0,0,1,13.47,0V159.35"/><path class="cls-1" d="M72.25,159.35v11.77a12.82,12.82,0,0,0,12.82,12.82A18.92,18.92,0,0,1,103.3,197.8l3,10.82a14.33,14.33,0,0,0,3.63,6.21l7.57,7.57H2.4L10,214.83a14.23,14.23,0,0,0,3.63-6.21l3-10.82a18.93,18.93,0,0,1,18.23-13.86,12.83,12.83,0,0,0,12.83-12.82V159.35Z"/><line class="cls-1" x1="34.83" y1="183.94" x2="66.69" y2="183.94"/><line class="cls-1" x1="11.83" y1="212.53" x2="66.69" y2="212.53"/></g></g></g></svg>