<svg xmlns="http://www.w3.org/2000/svg" viewBox="0 0 224.8 202.75"><defs><style>.cls-1{fill:none;stroke:#000;stroke-linecap:round;stroke-linejoin:round;stroke-width:4.8px;}</style></defs><title>Sink</title><g id="Layer_2" data-name="Layer 2"><g id="Elements"><g id="New_Symbol_10" data-name="New Symbol 10"><path class="cls-1" d="M106,80.33V23.85A21.48,21.48,0,0,1,127.45,2.4h4.87a21.48,21.48,0,0,1,21.45,21.45v3.34a5.41,5.41,0,0,1-5.4,5.41h-2.88A5.47,5.47,0,0,1,140,27.13V23.85a7.72,7.72,0,0,0-7.7-7.7h-4.87a7.72,7.72,0,0,0-7.7,7.7V80.33"/><path class="cls-1" d="M222.4,90.16a9.82,9.82,0,0,1-9.82,9.82H12.22a9.83,9.83,0,0,1,0-19.65H212.58A9.83,9.83,0,0,1,222.4,90.16Z"/><path class="cls-1" d="M212.58,100a84.26,84.26,0,0,1-78.65,54H90.87a84.26,84.26,0,0,1-78.65-54"/><path class="cls-1" d="M52.63,129.54a68.56,68.56,0,0,0,31.49,10.54"/><path class="cls-1" d="M34.88,113.19a66.08,66.08,0,0,0,7.45,8.32"/><line class="cls-1" x1="143.37" y1="153.47" x2="134.84" y2="200.35"/><line class="cls-1" x1="81.43" y1="153.47" x2="89.96" y2="200.35"/><path class="cls-1" d="M134.84,80.24v-13a7.71,7.71,0,0,1,7.71-7.71h18.14a2.49,2.49,0,0,1,2.16,3.72l-1.67,2.93a7.31,7.31,0,0,1-6.35,3.7h-10V80.24"/><path class="cls-1" d="M90,80.24v-13a7.71,7.71,0,0,0-7.71-7.71H64.11A2.49,2.49,0,0,0,62,63.27l1.67,2.93A7.31,7.31,0,0,0,70,69.9H80V80.24"/></g></g></g></svg>